<svg width="169" height="36" viewBox="0 0 169 36" fill="none" xmlns="http://www.w3.org/2000/svg">
<g clip-path="url(#clip0_2_8006)">
<path d="M17.088 21.4985C16.1349 21.9864 15.0368 22.1141 13.9966 21.8579C12.9564 21.6017 12.0444 20.9789 11.4291 20.1046C10.8117 19.2663 10.5024 18.2419 10.553 17.2032C10.6036 16.1646 11.011 15.1748 11.7069 14.4C12.4089 13.5956 13.3763 13.0679 14.4344 12.9122C15.4926 12.7565 16.5717 12.983 17.477 13.5508C19.3302 14.6878 21.3928 15.4442 23.5435 15.7754C25.2477 16.0154 26.9889 16.0892 28.7301 16.2277C28.5383 14.1281 27.8615 12.1012 26.7527 10.3057C25.6439 8.51015 24.1332 6.99478 22.3389 5.87816C20.5445 4.76155 18.5152 4.074 16.4097 3.86933C14.3043 3.66467 12.1799 3.94844 10.2029 4.69844C8.22586 5.44844 6.44982 6.64432 5.01381 8.19244C3.5778 9.74057 2.52079 11.5989 1.92552 13.6221C1.33026 15.6452 1.21289 17.7782 1.58262 19.8541C1.95234 21.9299 2.79912 23.8924 4.05667 25.5877L3.82512 25.4216L0 36L8.80797 29.6216C10.5951 30.5361 12.5614 31.0497 14.5688 31.1262C17.8936 31.2692 21.1557 30.1928 23.738 28.1005C26.3203 26.0083 28.0436 23.0454 28.5819 19.7723L28.3689 19.6985C24.5133 19.2109 20.5982 19.8356 17.088 21.4985Z" fill="#5D5D5D"/>
<path d="M39.0286 17.4744C38.9832 16.2227 39.1938 14.975 39.6477 13.8071C40.1015 12.6392 40.7891 11.5756 41.6685 10.681C42.548 9.78633 43.6009 9.07943 44.7632 8.60327C45.9254 8.12712 47.1728 7.89168 48.4293 7.91129C52.4582 7.91129 55.4312 10.1267 56.4037 12.8682L52.9861 14.5113C52.6525 13.5802 52.0323 12.778 51.2139 12.2194C50.3955 11.6607 49.4209 11.3741 48.4293 11.4005C45.1321 11.4005 42.8722 13.8651 42.8722 17.4744C42.8722 21.0836 45.095 23.5759 48.4293 23.5759C49.4209 23.6023 50.3955 23.3157 51.2139 22.7571C52.0323 22.1984 52.6525 21.3962 52.9861 20.4651L56.4037 22.1544C55.4775 24.9236 52.4582 27.1113 48.4293 27.1113C47.1663 27.1314 45.9125 26.8938 44.7451 26.4131C43.5776 25.9325 42.5212 25.2189 41.6407 24.3163C40.7602 23.4136 40.0742 22.341 39.625 21.1644C39.1758 19.9878 38.9728 18.732 39.0286 17.4744ZM70.9169 18.0005V26.7697H67.2122V18.7944C67.2122 18.1334 66.9487 17.4994 66.4798 17.032C66.0108 16.5646 65.3748 16.3021 64.7115 16.3021C64.0483 16.3021 63.4122 16.5646 62.9433 17.032C62.4743 17.4994 62.2108 18.1334 62.2108 18.7944V26.7697H58.4135V8.20667H62.1645V14.4097C62.5939 13.8824 63.1451 13.4666 63.7709 13.1982C64.3968 12.9297 65.0787 12.8165 65.7581 12.8682C66.445 12.8295 67.1323 12.9357 67.7751 13.1798C68.418 13.4239 69.0019 13.8005 69.4888 14.2849C69.9757 14.7692 70.3546 15.3506 70.6006 15.9908C70.8467 16.6311 70.9545 17.3159 70.9169 18.0005ZM72.4174 19.9667C72.3824 18.5211 72.7805 17.0979 73.5609 15.8789C74.3413 14.6599 75.4685 13.7003 76.7986 13.1228C78.1287 12.5452 79.6014 12.3759 81.0285 12.6365C82.4557 12.897 83.7725 13.5756 84.8108 14.5855C85.8492 15.5955 86.562 16.8909 86.8581 18.3065C87.1543 19.722 87.0204 21.1935 86.4736 22.5328C85.9268 23.8722 84.9918 25.0187 83.7881 25.826C82.5843 26.6333 81.1665 27.0647 79.7156 27.0651C78.7643 27.0937 77.8169 26.9309 76.9301 26.5865C76.0433 26.2421 75.2351 25.7231 74.554 25.0606C73.8728 24.3981 73.3325 23.6056 72.9654 22.7304C72.5984 21.8552 72.4119 20.9152 72.4174 19.9667ZM83.1425 19.9667C83.1425 17.7974 81.7718 16.2282 79.7156 16.2282C77.6595 16.2282 76.2888 17.7974 76.2888 19.9667C76.2888 22.1359 77.6688 23.7051 79.7156 23.7051C81.7625 23.7051 83.1425 22.1544 83.1425 19.9667ZM109.548 13.1636L104.843 26.7697H101.546L98.4245 17.6959L95.2755 26.7697H91.969L87.2733 13.1636H91.1447L93.6732 21.2867L96.3221 13.1636H100.499L103.148 21.2867L105.649 13.1636H109.548ZM124.404 8.20667V26.7697H120.903V25.4774C120.358 26.0124 119.708 26.4295 118.994 26.7027C118.28 26.9759 117.518 27.0993 116.754 27.0651C115.825 27.0679 114.906 26.885 114.05 26.5272C113.194 26.1693 112.418 25.6439 111.77 24.9819C111.121 24.32 110.612 23.535 110.274 22.6735C109.935 21.812 109.773 20.8916 109.798 19.9667C109.776 19.0471 109.938 18.1323 110.274 17.2756C110.61 16.4189 111.114 15.6374 111.756 14.9767C112.398 14.3161 113.166 13.7894 114.014 13.4274C114.863 13.0654 115.775 12.8753 116.698 12.8682C117.416 12.8378 118.132 12.9494 118.806 13.1966C119.48 13.4438 120.098 13.8216 120.625 14.3082V8.20667H124.404ZM120.699 19.9667C120.739 19.4906 120.679 19.0115 120.523 18.5597C120.368 18.1079 120.12 17.6931 119.795 17.3418C119.47 16.9904 119.076 16.71 118.637 16.5183C118.198 16.3266 117.724 16.2278 117.244 16.2282C116.762 16.2272 116.285 16.3249 115.842 16.5155C115.399 16.706 115 16.9852 114.67 17.3358C114.34 17.6864 114.086 18.1008 113.923 18.5534C113.761 19.0059 113.693 19.487 113.725 19.9667C113.69 20.447 113.756 20.9292 113.918 21.383C114.079 21.8368 114.333 22.2523 114.664 22.6035C114.994 22.9546 115.394 23.2338 115.839 23.4234C116.283 23.613 116.761 23.7089 117.244 23.7051C117.72 23.7005 118.19 23.598 118.624 23.404C119.058 23.21 119.448 22.9286 119.768 22.5777C120.088 22.2267 120.332 21.8136 120.484 21.3643C120.636 20.915 120.694 20.4392 120.653 19.9667H120.699ZM139.658 21.0097H130.054C130.169 21.6663 130.478 22.2738 130.941 22.7548C131.404 23.2359 132 23.5689 132.653 23.7114C133.307 23.8539 133.988 23.7995 134.61 23.5551C135.232 23.3107 135.768 22.8874 136.148 22.339L139.149 23.7513C138.315 25.7451 136.074 27.0651 133.267 27.0651C132.32 27.0973 131.376 26.935 130.493 26.5883C129.611 26.2415 128.81 25.7178 128.14 25.0495C127.469 24.3813 126.944 23.5828 126.596 22.7036C126.248 21.8245 126.085 20.8835 126.117 19.939C126.083 19.0177 126.237 18.0992 126.57 17.2389C126.902 16.3786 127.406 15.5943 128.051 14.9334C128.695 14.2726 129.468 13.7489 130.322 13.3939C131.175 13.0389 132.092 12.8601 133.017 12.8682C133.912 12.8446 134.802 13.001 135.635 13.328C136.468 13.655 137.226 14.1459 137.864 14.7715C138.502 15.397 139.007 16.1443 139.348 16.9688C139.69 17.7932 139.862 18.6778 139.853 19.5697C139.858 20.0566 139.793 20.5418 139.658 21.0097ZM135.861 18.2405C135.802 17.5574 135.479 16.9237 134.961 16.4727C134.443 16.0217 133.769 15.7885 133.082 15.8221C132.382 15.8002 131.699 16.0339 131.16 16.4793C130.621 16.9247 130.263 17.5511 130.155 18.2405H135.861ZM140.584 19.939C140.571 18.9959 140.75 18.0599 141.11 17.1877C141.47 16.3154 142.004 15.525 142.679 14.8641C143.355 14.2033 144.157 13.6857 145.039 13.3426C145.92 12.9996 146.863 12.8382 147.808 12.8682C149.179 12.8023 150.536 13.1717 151.682 13.9231C152.829 14.6746 153.707 15.7693 154.19 17.0497L150.967 18.6005C150.779 17.9085 150.364 17.299 149.788 16.8691C149.213 16.4392 148.509 16.2136 147.79 16.2282C145.817 16.2282 144.437 17.779 144.437 19.9667C144.437 22.1544 145.817 23.7051 147.79 23.7051C148.509 23.7235 149.213 23.5005 149.789 23.0719C150.365 22.6433 150.78 22.034 150.967 21.3421L154.171 22.9113C153.684 24.1865 152.804 25.2753 151.658 26.0215C150.511 26.7677 149.157 27.133 147.79 27.0651C146.842 27.0863 145.901 26.9169 145.02 26.567C144.14 26.2171 143.34 25.6939 142.667 25.0286C141.994 24.3634 141.463 23.5698 141.105 22.6953C140.748 21.8208 140.57 20.8833 140.584 19.939ZM163.766 18.6467L168.712 26.7697H164.637L161.34 21.3144L159.488 23.3544V26.7697H155.69V8.20667H159.441V18.3605L164.341 13.2005H168.712L163.766 18.6467Z" fill="#5D5D5D"/>
</g>
<defs>
<clipPath id="clip0_2_8006">
<rect width="168.75" height="36" fill="white"/>
</clipPath>
</defs>
</svg>
