<svg width="428" height="287" viewBox="0 0 428 287" fill="none" xmlns="http://www.w3.org/2000/svg">
<g opacity="0.5" clip-path="url(#clip0_1426_18612)">
<path d="M96.0942 176.013L14.8672 46.8418C14.1883 45.5686 13.832 44.1469 13.832 42.7028C13.832 41.2603 14.1883 39.8386 14.8672 38.5654L40.618 -21.3223H119.319L87.1805 53.3178C81.4073 66.7747 81.5382 79.6614 87.5766 89.2109C93.6133 98.7157 105.139 104.074 119.342 104.074H244.473L212.093 179.371H103.404C102 179.478 100.594 179.225 99.3147 178.638C98.0351 178.05 96.9281 177.146 96.0942 176.013Z" fill="#D1E6FF"/>
<path d="M413.69 -17.8615L494.917 111.309C495.598 112.582 495.953 114.004 495.953 115.448C495.953 116.892 495.598 118.312 494.917 119.585L469.298 179.474H390.553L422.692 104.702C428.465 91.245 428.334 78.3584 422.297 68.8312C416.259 59.3025 404.735 53.9686 390.508 53.9686H265.377L297.736 -21.33H406.381C407.794 -21.4194 409.206 -21.1482 410.484 -20.5413C411.764 -19.9345 412.868 -19.0123 413.69 -17.8615Z" fill="#D1E6FF"/>
<path d="M179.695 254.747L212.055 179.448H390.554L358.194 254.747H179.695Z" fill="#D1E6FF"/>
</g>
<defs>
<clipPath id="clip0_1426_18612">
<rect width="537.674" height="418" fill="white" transform="translate(0 -131)"/>
</clipPath>
</defs>
</svg>
