<svg width="55" height="40" viewBox="0 0 55 40" fill="none" xmlns="http://www.w3.org/2000/svg">
<path d="M9.36425 31.038L0.117972 16.3336C0.040439 16.1887 0 16.027 0 15.8626C0 15.6983 0.040439 15.5366 0.117972 15.3915L3.04921 8.57422H12.0082L8.34965 17.0709C7.69247 18.6028 7.7075 20.0696 8.39472 21.1568C9.08195 22.2389 10.3939 22.8486 12.0108 22.8486H26.2551L22.5692 31.4203H10.1965C10.0366 31.4323 9.87656 31.4036 9.73096 31.3366C9.58535 31.2698 9.45922 31.1669 9.36425 31.038Z" fill="#007AFF"/>
<path d="M35.9939 0L32.3104 8.57414H11.9932L15.6767 0H35.9939Z" fill="#007AFF"/>
<path d="M45.5182 8.96811L54.7645 23.6723C54.8421 23.8172 54.8825 23.9791 54.8825 24.1433C54.8825 24.3076 54.8421 24.4695 54.7645 24.6144L51.8483 31.4317H42.8843L46.5429 22.92C47.2 21.3882 47.185 19.9212 46.4978 18.8367C45.8106 17.7522 44.4986 17.1449 42.8793 17.1449H28.6348L32.3183 8.57319H44.6861C44.847 8.56299 45.0076 8.59389 45.1532 8.66297C45.2988 8.73204 45.4244 8.83703 45.5182 8.96811Z" fill="#007AFF"/>
<path d="M18.8809 40.0004L22.5644 31.4287H42.884L39.2005 40.0004H18.8809Z" fill="#007AFF"/>
</svg>
