<svg width="190" height="36" viewBox="0 0 190 36" fill="none" xmlns="http://www.w3.org/2000/svg">
<g clip-path="url(#clip0_2_8014)">
<path fill-rule="evenodd" clip-rule="evenodd" d="M0 9.47647C0 10.5748 0.427844 11.7951 1.28353 12.8934C2.20034 14.0527 3.48387 14.968 5.01188 15.6392C6.96774 16.4324 8.618 16.7375 9.90153 16.7375C11.674 16.7375 12.7742 16.1883 13.1409 16.0053C10.146 8.80529 4.4618 5.51037 3.54499 5.08325C1.34465 5.99851 0.0611205 7.52393 0 9.47647Z" fill="#5D5D5D"/>
<path fill-rule="evenodd" clip-rule="evenodd" d="M20.9292 10.6031C20.1346 12.2506 18.7288 14.6302 16.4062 16.6438C16.6507 16.7048 16.8952 16.7048 17.2619 16.7048C18.4843 16.7048 20.2568 16.1557 21.9682 13.5319C22.9461 12.0065 23.3129 10.6031 23.0073 9.38277C22.8239 8.46752 22.3961 7.91837 22.0293 7.61328C21.7849 8.22345 21.4793 9.32176 20.9292 10.6031Z" fill="#5D5D5D"/>
<path fill-rule="evenodd" clip-rule="evenodd" d="M6.27755 0.670789C5.17738 1.40299 4.56617 2.92842 4.38281 3.5996C8.23341 5.97926 10.6782 9.03011 12.0229 11.2877C12.9397 12.7521 13.4898 13.9725 13.7343 14.7657C13.9787 13.6674 13.9787 12.6301 13.9787 12.6301C13.9176 5.91825 11.7173 1.28096 8.23341 0.426721C8.17229 0.365704 8.05004 0.365704 7.9278 0.304688C7.80556 0.304688 7.74444 0.304688 7.6222 0.304688C7.19436 0.304688 6.70539 0.426721 6.27755 0.670789Z" fill="#5D5D5D"/>
<path fill-rule="evenodd" clip-rule="evenodd" d="M10.7158 25.4123C10.0435 26.3886 9.43227 27.1818 8.82107 27.853C8.6377 28.0971 8.45434 28.2801 8.27098 28.4632C6.62073 30.1716 5.27607 31.2089 4.78711 31.514C5.03159 32.2462 6.00952 34.931 8.20986 34.931C10.7769 34.931 12.3661 31.453 12.3661 31.453V31.392C12.4272 31.2089 13.5885 28.8903 14.1386 25.8394C14.1386 25.7174 14.1997 25.5343 14.1997 25.4123C14.2608 25.2293 14.2608 25.0462 14.2608 24.8632C14.383 24.0699 14.4442 23.2767 14.383 22.4225C14.383 21.5072 14.2608 20.592 14.0774 19.6767C14.0774 19.6157 14.0774 19.5547 14.0163 19.5547C13.0995 21.8733 11.8771 23.8259 10.7158 25.4123Z" fill="#5D5D5D"/>
<path fill-rule="evenodd" clip-rule="evenodd" d="M15.8789 20.8223V21.3104C15.8789 22.1647 15.8789 23.7511 16.0623 25.2765C16.2456 26.924 16.6735 28.5104 17.5903 29.3647C18.0181 29.7918 18.5682 30.0358 19.1183 30.0358H19.1794H19.3017C19.6073 30.0358 20.3407 29.9748 20.8297 29.1816C21.013 28.8765 21.1964 28.4494 21.3186 27.8392C21.2575 27.5342 20.9519 26.5579 20.4629 25.3375C20.3407 24.9714 20.1573 24.6053 19.974 24.1782C19.1794 22.1647 17.8348 19.846 16.0623 18.4426C16.0011 18.9308 15.8789 19.785 15.8789 20.8223Z" fill="#5D5D5D"/>
<path fill-rule="evenodd" clip-rule="evenodd" d="M19.3622 3.88672C18.8121 3.88672 18.3843 4.06977 17.9564 4.43587C16.0006 6.08333 15.7561 10.7206 15.695 12.4901L15.6338 12.8562C15.5727 13.9545 15.695 15.2359 15.7561 15.9071C20.0345 12.5511 21.4403 7.60875 21.6237 6.99858C21.4403 4.13079 19.6067 3.88672 19.5456 3.88672H19.3622Z" fill="#5D5D5D"/>
<path fill-rule="evenodd" clip-rule="evenodd" d="M16.9316 17.8555C17.5428 18.4046 18.3985 19.3809 19.3153 20.8453C20.0488 22.0046 20.7822 23.469 21.3934 25.3606C21.5768 25.8487 21.699 26.3978 21.8824 27.008C22.0658 26.7029 22.3714 26.2758 22.6159 25.7877C22.677 25.6656 22.7381 25.5436 22.7992 25.4216C22.8603 25.2995 22.9215 25.1775 22.9215 24.9945V24.9334C23.4104 23.225 22.9215 21.6385 21.5157 20.1741C19.6821 18.2216 18.0929 17.8555 17.0539 17.8555H16.9316Z" fill="#5D5D5D"/>
<path fill-rule="evenodd" clip-rule="evenodd" d="M0.305261 25.2767C0.244141 25.5207 0.244141 25.7648 0.244141 26.0089C0.366382 27.7174 1.64991 29.3648 3.78913 30.4021C4.2781 30.097 6.6618 28.5106 9.16774 25.2767C9.84007 24.4224 10.5124 23.4462 11.1847 22.4089L11.307 22.1648C11.9182 21.0665 12.5905 19.9072 13.1406 18.6258L13.2628 18.3818C12.8961 18.2597 12.346 18.1377 11.4292 18.1377C9.77895 18.1377 7.21188 18.6258 3.97249 20.7004C1.77215 22.1038 0.549743 23.6902 0.305261 25.2767Z" fill="#5D5D5D"/>
<path fill-rule="evenodd" clip-rule="evenodd" d="M145.522 24.482H139.899C139.716 24.482 139.532 24.2989 139.532 24.1159V19.1125C139.532 18.9294 139.716 18.7464 139.899 18.7464H145.522C148.211 18.8074 149.312 19.5396 149.312 21.6752C149.373 23.5057 148.211 24.482 145.522 24.482ZM139.899 11.0583H145.4C147.417 11.0583 148.456 11.6074 148.456 13.2549C148.456 15.0854 147.417 16.0006 145.4 16.0617H139.899C139.716 16.0617 139.532 15.8786 139.532 15.6956V11.4244C139.593 11.2413 139.716 11.0583 139.899 11.0583ZM149.678 17.0989L149.495 17.0379C150.778 16.3667 151.573 14.9633 151.573 13.2549C151.573 10.3261 149.25 8.3125 146.011 8.3125H136.721C136.537 8.3125 136.354 8.49555 136.354 8.6786V26.8617C136.354 27.0447 136.537 27.2278 136.721 27.2278H145.644C150.106 27.2278 152.429 25.3362 152.429 21.5532C152.49 19.4176 151.451 17.7701 149.678 17.0989Z" fill="#5D5D5D"/>
<path fill-rule="evenodd" clip-rule="evenodd" d="M169.358 8.49567L163.124 20.333C163.001 20.577 162.635 20.577 162.512 20.333L156.278 8.49567C156.217 8.37364 156.095 8.31262 155.973 8.31262H152.978C152.794 8.31262 152.672 8.55669 152.733 8.73974L162.512 27.1058C162.635 27.3499 163.001 27.3499 163.124 27.1058L172.903 8.73974C173.025 8.55669 172.842 8.31262 172.658 8.31262H169.664C169.541 8.31262 169.419 8.37364 169.358 8.49567Z" fill="#5D5D5D"/>
<path fill-rule="evenodd" clip-rule="evenodd" d="M125.963 24.482H120.34C120.156 24.482 119.973 24.2989 119.973 24.1159V19.1125C119.973 18.9294 120.156 18.7464 120.34 18.7464H125.963C128.652 18.8074 129.752 19.5396 129.752 21.6752C129.814 23.5057 128.652 24.482 125.963 24.482ZM120.401 11.0583H125.902C127.919 11.0583 128.958 11.6074 128.958 13.2549C128.958 15.0854 127.919 16.0006 125.902 16.0617H120.401C120.218 16.0617 120.034 15.8786 120.034 15.6956V11.4854C120.034 11.2413 120.218 11.0583 120.401 11.0583ZM130.18 17.0989L129.997 17.0379C131.28 16.3667 132.075 14.9633 132.075 13.2549C132.075 10.3261 129.752 8.3125 126.513 8.3125H117.223C117.039 8.3125 116.856 8.49555 116.856 8.6786V26.8617C116.856 27.0447 117.039 27.2278 117.223 27.2278H126.146C130.608 27.2278 132.931 25.3362 132.931 21.5532C132.992 19.4176 131.892 17.7701 130.18 17.0989Z" fill="#5D5D5D"/>
<path fill-rule="evenodd" clip-rule="evenodd" d="M172.476 24.2991L178.71 12.4618C178.832 12.2177 179.199 12.2177 179.321 12.4618L185.555 24.2991C185.617 24.4211 185.739 24.4821 185.861 24.4821H188.856C189.039 24.4821 189.162 24.2381 189.1 24.055L179.321 5.68891C179.199 5.44484 178.832 5.44484 178.71 5.68891L168.931 24.055C168.808 24.2381 168.992 24.4821 169.175 24.4821H172.17C172.292 24.4821 172.415 24.4211 172.476 24.2991Z" fill="#5D5D5D"/>
<path fill-rule="evenodd" clip-rule="evenodd" d="M108.849 10.143C108.849 9.59386 108.666 9.16674 108.299 8.86165C107.932 8.49555 107.504 8.3125 107.015 8.3125C106.465 8.3125 106.037 8.49555 105.732 8.86165C105.487 9.10572 105.365 9.34979 105.243 9.65487C105.182 9.83792 105.182 9.95996 105.182 10.143C105.182 10.6311 105.365 11.0583 105.732 11.4244C106.037 11.7905 106.465 11.9735 107.015 11.9735C107.504 11.9735 107.932 11.8515 108.299 11.4244C108.666 11.0583 108.849 10.6311 108.849 10.143Z" fill="#5D5D5D"/>
<path fill-rule="evenodd" clip-rule="evenodd" d="M108.97 27.2888C108.726 26.8617 108.726 25.4583 108.726 23.7498V16.2447C108.726 14.6583 108.848 13.2549 107.381 13.2549C106.892 13.2549 105.975 13.621 104.875 14.1701C105.425 14.5362 105.67 15.3295 105.67 16.9769V23.7498C105.67 25.7023 105.67 26.8006 105.425 27.2278H108.97V27.2888Z" fill="#5D5D5D"/>
<path fill-rule="evenodd" clip-rule="evenodd" d="M100.291 27.5333C98.8856 27.5333 97.8466 27.1062 97.2354 26.252C96.8075 25.6418 96.563 24.6045 96.563 23.0181V15.391H94.4238V13.7435L96.563 13.4995L96.8075 10.2045L99.6191 10.0215V13.5605H103.103V15.452H99.6191V18.8079V19.7842V20.1503V23.1401C99.6191 24.6045 100.23 25.3367 101.392 25.3367C102.125 25.3367 102.858 25.1537 103.653 24.7266L103.898 26.5571C102.675 27.2283 101.453 27.5333 100.291 27.5333Z" fill="#5D5D5D"/>
<path fill-rule="evenodd" clip-rule="evenodd" d="M57.8747 27.2887C57.6914 26.4955 57.6302 25.2142 57.6302 24.1159V18.1972C57.6302 14.3532 55.9189 13.1328 52.1905 13.1328C50.7236 13.1328 49.5623 13.4379 48.2177 14.0481L47.851 16.0006C49.1345 15.3294 50.6014 15.0243 52.0683 15.0243C54.6965 15.0243 54.5742 17.0989 54.5742 19.0515C50.9681 17.9532 46.3841 19.3565 46.5063 23.7498C46.5674 26.2515 48.401 27.5328 50.6625 27.5938C52.2516 27.5938 53.5352 26.9837 54.6353 25.8854L54.8798 27.2277H57.8747V27.2887ZM54.5131 24.4209C53.7185 25.0311 52.8017 25.4582 51.8238 25.4582C50.418 25.4582 49.5623 24.8481 49.5623 23.3837C49.5623 21.2481 51.5793 19.7837 54.5131 20.5769V24.4209Z" fill="#5D5D5D"/>
<path fill-rule="evenodd" clip-rule="evenodd" d="M89.4738 27.2887C89.596 26.9837 89.596 26.3735 89.596 25.6413C89.596 25.0921 89.596 24.3599 89.596 23.5667V18.1362C89.596 16.3057 89.046 15.4515 87.6402 15.4515C86.6011 15.4515 85.3787 16.1837 84.4008 17.0989V23.8718C84.4008 24.665 84.4008 25.3972 84.4619 25.9464C84.4619 26.5565 84.523 26.9837 84.5842 27.2887H81.2225C81.3448 26.7396 81.4059 25.5803 81.4059 23.9938V16.9159C81.4059 15.2074 81.1003 14.4752 80.6113 14.1701C81.8337 13.5599 82.5672 13.2548 83.1173 13.2548C84.0952 13.2548 84.3397 14.1091 84.3397 15.2684C85.501 14.0481 87.2123 13.1328 88.7404 13.1328C90.2684 13.1328 91.4297 13.682 92.102 14.7803C92.2853 15.0243 92.4076 15.3904 92.4687 15.7565C92.591 16.3667 92.6521 17.0989 92.6521 18.0752V23.8108C92.6521 26.0684 92.7743 27.0447 92.8354 27.2887H89.4738Z" fill="#5D5D5D"/>
<path fill-rule="evenodd" clip-rule="evenodd" d="M67.3479 15.5735C67.1034 15.5735 66.8589 15.5735 66.5533 15.5735C65.5754 15.5735 64.5975 16.0616 63.6196 17.1599V24.1159C63.6196 26.1294 63.6807 27.1057 63.8029 27.3498H60.4413C60.5024 27.1667 60.5024 26.8616 60.5635 26.5565C60.6246 25.8854 60.6246 25.0311 60.6246 24.1159V16.9159C60.6246 15.3294 60.3802 14.4752 59.8301 14.1701C60.808 13.682 61.7248 13.2548 62.336 13.2548C63.3751 13.2548 63.5584 14.2311 63.5584 15.2684C64.5364 13.804 65.6976 13.1328 67.0423 13.1328C67.2868 13.1328 67.5313 13.1328 67.7758 13.1938L67.3479 15.5735Z" fill="#5D5D5D"/>
<path fill-rule="evenodd" clip-rule="evenodd" d="M75.3549 24.4209C74.5603 25.0311 73.6435 25.4582 72.6656 25.4582C71.2598 25.4582 70.4041 24.8481 70.4041 23.3837C70.4041 21.2481 72.4211 19.7837 75.3549 20.5769V24.4209ZM78.7165 27.2887C78.472 26.8006 78.472 25.2142 78.472 24.1159V18.1972C78.472 14.3532 76.7607 13.1328 73.0323 13.1328C71.5654 13.1328 70.343 13.4379 69.0595 14.0481L68.6928 16.0006C69.1817 15.7565 69.6707 15.5735 70.2208 15.3904C71.0765 15.1464 71.9933 15.0243 72.9101 15.0243C75.5382 15.0243 75.416 17.0989 75.416 19.0515C71.8099 17.9532 67.2259 19.3565 67.3481 23.7498C67.4092 26.2515 69.2428 27.5328 71.5043 27.5938C73.0934 27.5938 74.377 26.9837 75.4771 25.8854C75.4771 25.8854 75.5383 26.7396 75.7216 27.2277H78.7165V27.2887Z" fill="#5D5D5D"/>
<path fill-rule="evenodd" clip-rule="evenodd" d="M43.4494 10.4487C41.9213 9.83854 40.2711 9.53345 38.6208 9.53345C36.5427 9.53345 34.8314 10.2657 33.4867 11.7301C32.0809 13.1945 31.4086 15.086 31.4086 17.3436C31.4086 19.8453 32.0198 21.7979 33.3034 23.2623C34.5258 24.7267 36.176 25.4589 38.3764 25.4589C39.5376 25.4589 40.4545 25.2758 41.3101 24.9707V20.0894C41.3101 19.7843 41.3101 19.4182 41.3101 19.1741H39.721H38.7431C38.682 18.3199 38.6208 17.4046 38.4375 16.8555L44.6718 17.0996C44.4273 17.8318 44.4273 18.747 44.4273 20.3335V22.8351C44.4273 24.6046 44.5495 25.764 44.6718 26.3741C42.4714 27.2894 40.2711 27.7165 38.0708 27.7165C34.8314 27.7165 32.2643 26.8012 30.4918 25.0318C28.7193 23.2012 27.6191 20.8216 27.6191 17.7097C27.6191 14.5979 28.7193 12.0351 30.7363 10.0216C32.7533 8.06904 35.3814 7.09277 38.6208 7.09277C41.4324 7.09277 42.4103 7.45888 43.9383 7.94701L43.4494 10.4487Z" fill="#5D5D5D"/>
</g>
<defs>
<clipPath id="clip0_2_8014">
<rect width="189.474" height="36" fill="white"/>
</clipPath>
</defs>
</svg>
