<svg width="195" height="40" viewBox="0 0 195 40" fill="none" xmlns="http://www.w3.org/2000/svg">
<path d="M9.59277 31.038L0.346488 16.3336C0.268955 16.1887 0.228516 16.027 0.228516 15.8626C0.228516 15.6983 0.268955 15.5366 0.346488 15.3915L3.27772 8.57422H12.2367L8.57816 17.0709C7.92099 18.6028 7.93601 20.0696 8.62324 21.1568C9.31046 22.2389 10.6224 22.8486 12.2393 22.8486H26.4837L22.7977 31.4203H10.425C10.2652 31.4323 10.1051 31.4036 9.95947 31.3366C9.81387 31.2698 9.68774 31.1669 9.59277 31.038Z" fill="#007AFF"/>
<path d="M36.2224 0L32.5389 8.57414H12.2217L15.9052 0H36.2224Z" fill="#007AFF"/>
<path d="M45.7468 8.96811L54.993 23.6723C55.0706 23.8172 55.111 23.9791 55.111 24.1433C55.111 24.3076 55.0706 24.4695 54.993 24.6144L52.0768 31.4317H43.1129L46.7714 22.92C47.4286 21.3882 47.4135 19.9212 46.7263 18.8367C46.0391 17.7522 44.7271 17.1449 43.1079 17.1449H28.8633L32.5468 8.57319H44.9147C45.0755 8.56299 45.2361 8.59389 45.3817 8.66297C45.5273 8.73204 45.6529 8.83703 45.7468 8.96811Z" fill="#007AFF"/>
<path d="M19.1094 40.0004L22.7929 31.4287H43.1125L39.429 40.0004H19.1094Z" fill="#007AFF"/>
<path d="M67.0878 28.1633C65.4504 27.245 64.1677 25.8048 63.4443 24.0724L66.0908 22.4605C66.6974 23.7537 67.6947 24.8236 68.9421 25.5194C70.2906 26.2509 71.8066 26.618 73.3404 26.5839C75.0565 26.5839 76.4076 26.2233 77.3938 25.5018C77.8623 25.1788 78.243 24.7442 78.5011 24.2373C78.7595 23.7302 78.8873 23.1669 78.8732 22.598C78.8844 22.1717 78.8024 21.7481 78.6332 21.3567C78.4641 20.9653 78.2118 20.6153 77.8937 20.3313C77.2423 19.7333 76.1943 19.2518 74.7499 18.887L70.8664 17.9623C66.4015 16.8845 64.1681 14.7185 64.1664 11.4649C64.1466 10.206 64.512 8.97145 65.2137 7.92624C65.9718 6.84894 67.0205 6.00906 68.2375 5.50472C69.7108 4.88947 71.2969 4.59065 72.8932 4.62756C75.0472 4.62756 76.9032 5.0282 78.4609 5.8295C80.0186 6.63099 81.1174 7.6955 81.7572 9.02339L79.1806 10.7152C78.5802 9.72582 77.6941 8.94159 76.6391 8.466C75.4512 7.93273 74.16 7.66897 72.8581 7.69383C71.2088 7.69383 69.9209 8.02695 68.9946 8.6934C68.5495 8.99686 68.1883 9.40808 67.945 9.88868C67.7014 10.3695 67.5838 10.9038 67.6027 11.4423C67.5899 11.8548 67.6699 12.2647 67.8365 12.6422C68.0028 13.0199 68.2518 13.3552 68.5649 13.624C69.2046 14.1838 70.2808 14.6362 71.7936 14.981L75.6769 15.9431C77.966 16.4929 79.6497 17.3059 80.7275 18.3821C81.2603 18.9161 81.6782 19.5534 81.9556 20.2547C82.2333 20.9561 82.3648 21.7065 82.3418 22.4605C82.3663 23.7927 81.9959 25.1022 81.2773 26.224C80.5144 27.3551 79.4323 28.2338 78.1686 28.7481C76.8041 29.3445 75.1713 29.6427 73.2704 29.6427C70.8447 29.6411 68.7839 29.1479 67.0878 28.1633Z" fill="#181A27"/>
<path d="M96.824 12.4237C98.0866 13.2165 99.1006 14.3483 99.7504 15.69C100.442 17.1841 100.8 18.8106 100.8 20.4568C100.8 22.1031 100.442 23.7297 99.7504 25.2238C99.0997 26.5587 98.0875 27.6842 96.829 28.4725C95.6155 29.2009 94.234 29.6031 92.8192 29.6394C91.4043 29.6758 90.004 29.3452 88.7546 28.6799C87.6766 28.096 86.815 27.1803 86.2982 26.0684V36.0294H83.0645V11.7365H86.2932V14.8302C86.8098 13.7153 87.6732 12.7975 88.7546 12.2138C89.9367 11.5599 91.27 11.2281 92.6207 11.2517C94.1048 11.2344 95.563 11.641 96.824 12.4237ZM95.8969 24.9188C96.9381 23.761 97.4596 22.2782 97.4613 20.4707C97.4613 18.6379 96.9397 17.1427 95.8969 15.9849C94.8539 14.8269 93.4852 14.2489 91.791 14.2506C90.0966 14.2506 88.7338 14.8286 87.7025 15.9849C86.6712 17.141 86.1558 18.6331 86.1558 20.4607C86.1558 22.2699 86.6712 23.7527 87.7025 24.9088C88.7338 26.0651 90.0966 26.644 91.791 26.6457C93.4852 26.649 94.8539 26.0718 95.8969 24.9138V24.9188Z" fill="#181A27"/>
<path d="M118.213 21.4278H104.538C104.722 23.0938 105.329 24.3933 106.36 25.3261C107.392 26.2591 108.72 26.7199 110.346 26.7082C112.524 26.7082 114.322 25.8494 115.742 24.1316L117.836 25.9859C117.01 27.1474 115.906 28.0832 114.624 28.7074C113.267 29.3512 111.779 29.6745 110.276 29.652C108.634 29.6813 107.013 29.2844 105.57 28.5C104.215 27.7504 103.105 26.6249 102.374 25.2588C101.602 23.7929 101.215 22.1547 101.25 20.4981C101.226 18.8477 101.609 17.2167 102.367 15.7501C103.074 14.381 104.151 13.238 105.475 12.4512C106.845 11.6486 108.409 11.2355 109.996 11.2567C111.499 11.2303 112.981 11.6039 114.292 12.3388C115.543 13.0542 116.566 14.1085 117.243 15.3802C117.972 16.7656 118.339 18.3131 118.308 19.8784C118.311 20.3963 118.279 20.914 118.213 21.4278ZM106.395 15.4626C105.456 16.2956 104.86 17.4617 104.608 18.9612H115.054C114.918 17.4486 114.396 16.2822 113.49 15.4626C112.584 14.6429 111.419 14.2265 109.996 14.2131C108.535 14.2131 107.335 14.6295 106.395 15.4626Z" fill="#181A27"/>
<path d="M132.937 13.0089C134.025 14.1751 134.568 15.8244 134.568 17.9569V29.1575H131.34V18.7465C131.34 17.1888 131.03 16.0494 130.41 15.3279C129.79 14.6065 128.828 14.2459 127.524 14.2459C126.034 14.2459 124.815 14.6623 123.865 15.4954C122.915 16.3284 122.44 17.4563 122.438 18.879V29.1575H119.209V11.7369H122.438V14.5883C122.933 13.545 123.746 12.6851 124.76 12.1318C125.872 11.5315 127.12 11.2303 128.383 11.257C130.329 11.257 131.847 11.8409 132.937 13.0089Z" fill="#181A27"/>
<path d="M153.811 4.00635V29.1566H150.58V26.0652C150.06 27.1808 149.192 28.0972 148.106 28.6767C146.86 29.3419 145.462 29.6724 144.05 29.636C142.638 29.5997 141.26 29.1977 140.049 28.4693C138.788 27.679 137.771 26.5544 137.11 25.2205C136.409 23.7292 136.046 22.1016 136.046 20.4537C136.046 18.8057 136.409 17.1782 137.11 15.6868C137.768 14.3468 138.786 13.2159 140.049 12.4205C141.26 11.6933 142.639 11.292 144.051 11.2562C145.463 11.2203 146.86 11.5508 148.106 12.2158C149.192 12.7945 150.061 13.7111 150.58 14.8272V4.00635H153.811ZM149.171 24.9132C150.203 23.7554 150.719 22.2726 150.717 20.4649C150.717 18.6323 150.202 17.1371 149.171 15.9793C148.139 14.8213 146.777 14.2433 145.082 14.2448C143.388 14.2448 142.019 14.823 140.976 15.9793C139.933 17.1354 139.413 18.6289 139.415 20.4599C139.415 22.2693 139.935 23.7521 140.976 24.9082C142.018 26.0643 143.386 26.6434 145.082 26.6451C146.777 26.6484 148.139 26.071 149.171 24.9132Z" fill="#181A27"/>
<path d="M156.713 7.68202C156.327 7.2593 156.113 6.70748 156.113 6.13507C156.113 5.56266 156.327 5.01084 156.713 4.58812C157.137 4.19174 157.696 3.97119 158.277 3.97119C158.858 3.97119 159.417 4.19174 159.842 4.58812C160.228 5.01084 160.441 5.56266 160.441 6.13507C160.441 6.70748 160.228 7.2593 159.842 7.68202C159.417 8.07841 158.858 8.29895 158.277 8.29895C157.696 8.29895 157.137 8.07841 156.713 7.68202ZM156.663 11.7354H159.892V29.1561H156.663V11.7354Z" fill="#181A27"/>
<path d="M178.514 11.7358L171.517 29.1565H168.049L161.071 11.7358H164.507L169.8 25.618L175.048 11.7358H178.514Z" fill="#181A27"/>
<path d="M194.213 21.4275H180.536C180.721 23.0934 181.329 24.3929 182.358 25.3259C183.388 26.2589 184.721 26.7228 186.357 26.718C188.534 26.718 190.332 25.859 191.752 24.1414L193.846 25.9957C193.018 27.1496 191.914 28.0774 190.635 28.6947C189.277 29.3385 187.789 29.6616 186.287 29.6392C184.645 29.6685 183.023 29.2715 181.581 28.4871C180.227 27.7404 179.118 26.6195 178.385 25.2584C177.61 23.793 177.22 22.1552 177.25 20.4979C177.226 18.8472 177.61 17.2163 178.367 15.7496C179.074 14.3807 180.151 13.2378 181.476 12.4509C182.851 11.6491 184.42 11.2394 186.012 11.2664C187.514 11.2401 188.997 11.6135 190.307 12.3486C191.56 13.0631 192.585 14.1175 193.264 15.3898C193.993 16.7754 194.359 18.3229 194.328 19.888C194.323 20.4031 194.284 20.9173 194.213 21.4275ZM182.398 15.4623C181.458 16.2953 180.863 17.4615 180.611 18.9609H191.057C190.921 17.4481 190.399 16.282 189.493 15.4623C188.587 14.6427 187.42 14.2303 185.994 14.2253C184.536 14.217 183.338 14.6293 182.398 15.4623Z" fill="#181A27"/>
</svg>
