<svg width="125" height="40" viewBox="0 0 125 40" fill="none" xmlns="http://www.w3.org/2000/svg">
<g clip-path="url(#clip0_2_8001)">
<path d="M116.358 32.9231L116.667 32.3077C117.284 31.6923 117.593 31.6923 118.519 32L120.679 32.6154C121.296 32.6154 121.605 32.3077 121.605 32C121.605 30.7692 116.358 31.3846 116.358 27.3846C116.358 25.2308 118.519 24 120.988 24L124.074 24.6154C124.691 24.9231 125 25.5385 124.691 26.4615L124.383 26.7692C124.074 27.3846 123.457 27.6923 122.84 27.3846L120.679 27.0769L119.753 27.3846C119.753 28.9231 125 28 125 32C125 34.1538 123.148 35.6923 120.37 35.6923C118.827 35.6923 117.593 35.0769 116.667 34.7692C116.049 34.1538 116.049 33.5385 116.358 32.9231ZM106.173 36.6154L106.79 36.9231C107.407 36.9231 108.025 36.3077 108.333 35.6923L108.642 35.0769L104.63 25.5385C104.012 24.6154 104.63 24.3077 105.247 24.3077H107.099C107.716 24.3077 108.333 24.6154 108.333 25.2308L109.877 29.2308L110.185 31.0769L110.494 29.2308L111.728 25.2308C111.728 24.6154 112.346 24.3077 112.963 24.3077H114.506C115.432 24.3077 115.741 24.6154 115.432 25.5385L111.42 36.6154C110.556 39.1385 107.809 40.5231 105.247 39.6923C104.63 39.3846 104.321 38.7692 104.63 38.1538L104.938 37.5385C105.247 36.6154 105.864 36.6154 106.173 36.6154ZM99.6914 28.3077H100C100 27.3846 99.0741 27.0769 98.4568 27.0769L96.2963 27.3846C95.679 27.6923 95.0617 27.6923 94.7531 27.0769L94.4444 26.4615C94.1358 25.8462 94.4444 25.2308 95.0617 24.9231C95.679 24.3077 97.2222 24 98.7654 24C101.852 24 103.704 25.5385 103.704 28.3077V34.1538C103.704 34.7692 103.395 35.3846 102.469 35.3846H101.543C100.617 35.3846 100.309 34.7692 100.309 34.1538V33.8462C100.309 33.8462 99.0741 35.3846 96.9136 35.3846C94.7531 35.6923 93.2099 34.1538 93.2099 32.3077C93.5185 29.2308 96.9136 28.3077 99.6914 28.3077ZM98.1481 32.9231C99.0741 32.9231 100 31.6923 100 30.7692V30.4615H99.6914C98.4568 30.4615 97.2222 30.7692 97.2222 31.6923C97.2222 32.3077 97.5309 32.9231 98.1481 32.9231ZM85.4938 24C87.6543 24 88.2716 25.2308 88.2716 25.2308V21.2308C88.2716 20.3077 88.5802 20 89.5062 20H90.7407C91.6667 20 91.9753 20.3077 91.9753 20.9231V34.1538C91.9753 34.7692 91.6667 35.3846 90.7407 35.3846H89.8148C88.8889 35.3846 88.5802 35.0769 88.5802 34.1538V33.8462C88.5802 33.8462 87.6543 35.6923 85.1852 35.6923C82.4074 35.6923 80.5556 33.2308 80.5556 29.8462C80.5556 26.1538 82.4074 24 85.4938 24ZM86.1111 32.6154C87.3457 32.6154 88.2716 31.6923 88.2716 29.8462C88.2716 28.3077 87.6543 27.0769 86.1111 27.0769C85.1852 27.0769 83.9506 28 83.9506 29.8462C83.9506 31.3846 84.8765 32.6154 86.1111 32.6154ZM75.6173 25.5385C75.6173 24.6154 75.9259 24.3077 76.8519 24.3077H78.0864C79.0123 24.3077 79.321 24.6154 79.321 25.2308V34.1538C79.321 34.7692 79.0123 35.3846 78.0864 35.3846H76.8519C76.2346 35.3846 75.6173 35.0769 75.6173 34.1538V25.5385ZM75.6173 21.5385V20.9231C75.6173 20.3077 76.2346 20 76.8519 20H78.0864C79.0123 20 79.321 20.3077 79.321 20.9231V21.5385C79.321 22.4615 79.0123 22.7692 78.0864 22.7692H76.8519C76.2346 22.7692 75.6173 22.4615 75.6173 21.5385ZM69.1358 21.2308C69.1358 20.3077 69.4444 20 70.3704 20H71.6049C72.5309 20 72.8395 20.3077 72.8395 20.9231V31.0769C72.8395 31.6923 73.1481 32 73.4568 32C74.0741 32.3077 74.3827 32.6154 74.3827 33.2308V34.1538C74.3827 34.7692 74.0741 35.3846 73.1481 35.3846C71.2963 35.3846 69.1358 35.0769 69.1358 31.0769V21.2308ZM61.4198 24C64.8148 24 67.9012 26.4615 67.9012 29.8462C67.9012 33.2308 64.8148 35.6923 61.4198 35.6923C58.0247 35.6923 55.2469 33.2308 55.2469 29.8462C55.2469 26.4615 58.0247 24 61.4198 24ZM61.4198 32.6154C62.6543 32.6154 63.8889 31.3846 63.8889 29.8462C63.8889 28 62.6543 27.0769 61.4198 27.0769C60.1852 27.0769 58.9506 28 58.9506 29.8462C58.9506 31.3846 60.1852 32.6154 61.4198 32.6154ZM42.9012 21.2308C42.9012 20.3077 43.2099 20 44.1358 20H45.3704C46.2963 20 46.6049 20.3077 46.6049 20.9231V25.8462C47.2222 24.6154 48.4568 24 50 24C52.1605 24 54.0123 24.9231 54.0123 28V34.1538C54.0123 34.7692 53.7037 35.3846 52.7778 35.3846H51.5432C50.6173 35.3846 50.3086 34.7692 50.3086 34.1538V28.9231C50.3086 27.6923 50 27.3846 49.0741 27.3846C47.5309 27.3846 46.6049 28.6154 46.6049 30.1538V34.1538C46.6049 34.7692 46.2963 35.3846 45.3704 35.3846H44.1358C43.2099 35.3846 42.9012 35.0769 42.9012 34.1538V21.2308ZM36.4198 24C39.8148 24 41.6667 26.4615 41.6667 29.2308C41.6667 29.8462 41.0494 30.4615 40.4321 30.4615H34.5679C34.8765 32 35.8025 32.6154 37.037 32.6154L39.1975 32C39.8148 31.6923 40.4321 31.6923 40.7407 32.3077L41.0494 32.9231C41.358 33.5385 41.358 34.1538 40.7407 34.4615C39.8148 35.0769 38.5802 35.6923 36.7284 35.6923C32.716 35.6923 30.8642 32.6154 30.8642 29.8462C30.8642 26.4615 33.0247 24 36.4198 24ZM37.963 28.3077C37.963 27.3846 37.3457 26.7692 36.4198 26.7692C35.4938 26.7692 34.8765 27.3846 34.5679 28.3077H37.963ZM18.8272 25.5385C18.5185 24.6154 19.1358 24.3077 20.0617 24.3077H21.2963C21.9136 24.3077 22.5309 24.6154 22.8395 25.2308L24.0741 30.1538L24.6914 32L25 30.1538L26.5432 25.2308C26.5432 24.6154 27.1605 24.3077 27.7778 24.3077H29.321C29.9383 24.3077 30.5556 24.6154 30.2469 25.5385L27.1605 34.4615C26.8519 35.0769 26.5432 35.3846 25.9259 35.3846H23.4568C22.5309 35.3846 22.2222 35.0769 21.9136 34.4615L18.8272 25.5385ZM12.037 24C15.7407 24 18.5185 26.4615 18.5185 29.8462C18.5185 33.2308 15.7407 35.6923 12.037 35.6923C8.64198 35.6923 5.8642 33.2308 5.8642 29.8462C5.8642 26.4615 8.64198 24 12.037 24ZM12.037 32.6154C13.5802 32.6154 14.8148 31.3846 14.8148 29.8462C14.8148 28 13.5802 27.0769 12.037 27.0769C10.8025 27.0769 9.5679 28 9.5679 29.8462C9.5679 31.3846 10.8025 32.6154 12.037 32.6154ZM0 21.2308C0 20.3077 0.308642 20 1.23457 20H2.46914C3.39506 20 3.7037 20.3077 3.7037 20.9231V31.0769C3.7037 31.6923 4.01235 32 4.32099 32C4.93827 32.3077 5.24691 32.6154 5.24691 33.2308V34.1538C5.24691 34.7692 4.93827 35.3846 4.01235 35.3846C2.16049 35.3846 0 35.0769 0 31.0769V21.2308Z" fill="#5D5D5D"/>
<path d="M22.2223 20.3077C18.8272 20.9231 16.3581 20 15.1235 17.5385C13.2717 14.1539 15.1235 10.1539 18.8272 9.23079C20.9877 8.61541 23.1482 8.61541 25.3087 9.84618C27.1605 11.3846 27.7778 13.2308 27.4692 15.6923C27.1605 17.8462 25.3087 19.3846 23.1482 20L22.2223 20.3077ZM19.7531 6.76925C19.7531 6.76925 21.2963 0.307715 17.9013 2.24039e-05C14.8149 -0.30767 16.3581 6.15387 19.7531 6.76925ZM12.963 10.1539C12.963 10.1539 9.87659 4.9231 8.02474 5.53848C6.17289 6.15387 5.5556 7.69233 6.17289 8.30771C6.79017 8.9231 10.1852 11.0769 12.963 10.1539ZM25.6173 8.61541C25.6173 8.61541 27.1605 1.53848 30.247 3.07695C33.0247 4.61541 30.5556 5.23079 30.5556 5.84618C30.5556 6.76925 25.6173 8.61541 25.6173 8.61541ZM30.5556 13.2308C30.5556 13.2308 33.3334 9.84618 35.8025 12C38.2717 14.1539 33.3334 15.6923 30.5556 13.2308ZM11.1112 16.3077C11.1112 16.3077 6.48153 13.8462 6.17289 16.3077C5.5556 19.0769 7.09881 16.9231 7.09881 18.1539C6.79017 19.3846 9.25931 17.8462 11.1112 16.3077Z" fill="#5D5D5D"/>
<path d="M20.6784 13.5385L22.2217 12.0001L23.4562 11.6924C24.0735 11.6924 24.6908 12.3078 24.9994 13.2308C24.9994 14.1539 24.9994 15.077 24.3822 16.0001L22.2217 19.3847H21.6044C20.0612 18.7693 18.8266 17.8462 17.592 16.3078C17.2834 16.0001 16.6661 15.077 16.9747 14.4616C16.9747 13.2308 17.592 12.6155 18.518 12.6155C19.4439 12.6155 19.7525 12.9232 20.6784 13.5385Z" fill="white"/>
<path d="M40.1225 22.7697L38.2706 22.1543L36.7274 21.8466L35.1842 21.5389L34.8756 21.2312L32.4064 20.9235H31.1719L29.0114 20.6158H27.1595H26.8509H26.5422L25.6163 20.3081H21.9126H21.604L21.2953 20.0005L17.283 20.3081L15.4311 20.6158H14.5052L14.1966 20.9235H13.2706L12.6534 21.2312L10.4929 21.8466L8.33237 22.7697L8.02373 23.0774H6.17188V22.462L8.02373 20.9235L8.94965 20.6158L12.0361 19.3851L13.8879 19.0774L16.0484 18.462H17.9003L18.2089 18.7697L18.8262 18.462L20.9867 18.1543H27.4682L27.7768 18.462H31.1719V18.7697L31.4805 19.0774V18.7697C31.4805 18.462 31.7892 18.1543 32.0978 18.462L33.9497 18.7697H35.4929L38.8879 19.3851L40.1225 20.3081L40.4311 21.2312L40.7398 21.5389V22.462C40.7398 23.0774 40.4311 23.0774 40.1225 22.7697ZM20.678 18.7697H20.3694L20.678 19.0774V18.7697ZM26.8509 18.7697H21.9126H21.2953V19.0774H27.1595V18.7697H26.8509ZM27.7768 19.0774V18.7697H27.4682V19.0774H27.7768ZM29.0114 19.0774V18.7697L28.7027 19.0774H29.0114ZM30.8632 18.7697H30.5546V19.0774H30.8632V18.7697ZM33.0237 19.6928V20.0005L33.3324 19.6928H33.0237ZM33.3324 19.0774H33.0237L33.3324 19.3851V19.0774Z" fill="#5D5D5D"/>
</g>
<defs>
<clipPath id="clip0_2_8001">
<rect width="125" height="40" fill="white"/>
</clipPath>
</defs>
</svg>
