<svg width="54" height="42" viewBox="0 0 54 42" fill="none" xmlns="http://www.w3.org/2000/svg">
<g opacity="0.1" clip-path="url(#clip0_2_10078)">
<path d="M9.65145 30.8485L1.49361 17.8695C1.42543 17.7416 1.38965 17.5987 1.38965 17.4536C1.38965 17.3087 1.42543 17.1659 1.49361 17.0379L4.07984 11.0205H11.984L8.75622 18.5202C8.17641 19.8724 8.18956 21.1672 8.79601 22.1267C9.4023 23.0817 10.5598 23.6201 11.9863 23.6201H24.5535L21.3015 31.1858H10.3856C10.2446 31.1966 10.1034 31.1712 9.97489 31.1122C9.84639 31.0531 9.7352 30.9623 9.65145 30.8485Z" fill="#AAD3FF"/>
<path d="M33.1455 3.45215L29.8956 11.0202H11.9707L15.2205 3.45215H33.1455Z" fill="#AAD3FF"/>
<path d="M41.5479 11.368L49.7057 24.3468C49.774 24.4747 49.8097 24.6176 49.8097 24.7627C49.8097 24.9078 49.774 25.0505 49.7057 25.1784L47.1326 31.1959H39.2241L42.4519 23.6829C43.0317 22.3308 43.0186 21.036 42.4123 20.0787C41.8058 19.1213 40.6484 18.5853 39.2196 18.5853H26.6523L29.9023 11.0194H40.8137C40.9557 11.0104 41.0975 11.0377 41.2259 11.0987C41.3544 11.1597 41.4652 11.2523 41.5479 11.368Z" fill="#AAD3FF"/>
<path d="M18.0469 38.7593L21.2968 31.1934H39.2239L35.974 38.7593H18.0469Z" fill="#AAD3FF"/>
</g>
<defs>
<clipPath id="clip0_2_10078">
<rect width="54" height="42" fill="white"/>
</clipPath>
</defs>
</svg>
