<svg width="155" height="36" viewBox="0 0 155 36" fill="none" xmlns="http://www.w3.org/2000/svg">
<g clip-path="url(#clip0_2_8010)">
<path fill-rule="evenodd" clip-rule="evenodd" d="M86.7686 11.933V20.7571C86.7686 23.7657 88.1056 24.7011 90.1108 24.7011C92.2842 24.7011 93.9216 23.2642 93.9216 20.4568V11.933H97.9326V27.9772C97.9326 32.6567 95.0248 35.7655 89.9771 35.7655C85.7657 35.7655 83.493 33.4254 82.6908 30.4508L86.4348 29.682C86.7686 31.3195 87.8721 32.3223 89.9771 32.3223C92.4174 32.3223 93.9216 30.8185 93.9216 28.0106V26.2388L93.8883 26.1386C92.7517 27.5092 91.3816 28.4451 88.8411 28.4451C85.1973 28.4451 82.7576 26.3057 82.7576 21.4262V11.933H86.7686ZM35.4162 11.4654C40.43 11.4654 44.107 15.3425 44.107 20.256C44.107 25.2028 40.43 29.0801 35.4162 29.0801C30.369 29.0801 26.7592 25.2028 26.7592 20.256C26.7592 15.3425 30.4358 11.4654 35.4162 11.4654ZM72.4463 11.4652C77.2929 11.4652 80.3345 14.9747 80.3345 20.0559V21.5931H67.8671C68.0343 23.699 69.8394 25.7711 72.4798 25.7711C74.8193 25.7711 76.1564 24.3671 76.5576 23.2306L79.9339 24.2668C78.9644 26.9411 76.5576 29.08 72.4798 29.08C67.7 29.08 64.0234 25.4039 64.0234 20.2559C64.0234 15.2087 67.7 11.4652 72.4463 11.4652ZM105.295 5.21465V13.8048C106.198 12.6353 107.936 11.4654 110.476 11.4654C115.257 11.4654 118.532 15.376 118.532 20.256C118.532 25.136 115.089 29.0801 110.443 29.0801C107.669 29.0801 105.964 27.6766 105.128 26.573L104.594 28.6121H101.285V5.21465H105.295ZM18.8516 11.4655C21.96 11.4655 24.2331 13.3036 24.2331 17.5819V28.6122H20.2222V18.6851C20.2222 16.1445 19.1191 15.1756 17.3807 15.1756C15.5427 15.1756 14.1388 16.5127 14.1388 19.1531V28.6122H10.1278V18.6851C10.1278 16.1445 8.92445 15.1756 7.25344 15.1756C5.44835 15.1756 4.01095 16.4788 4.01095 19.1531V28.6122H0V11.933H3.30892L3.84378 13.9052C4.84666 12.5682 6.6184 11.4655 8.99129 11.4655C11.4979 11.4655 12.8355 12.6684 13.5036 13.9721C14.5398 12.635 16.2781 11.4655 18.8516 11.4655ZM55.6141 11.4655C59.3916 11.4655 61.5973 13.6379 61.5973 18.5179V28.6122H57.5864V19.0528C57.5864 16.1115 56.2158 15.1756 54.3444 15.1756C52.3052 15.1756 50.6672 16.613 50.6672 19.4539V28.6122H46.6563V11.933H49.9658L50.534 13.9387C51.5698 12.5682 53.1409 11.4655 55.6141 11.4655ZM142.153 11.9329L145.93 17.2474L149.706 11.9329H154.118L148.202 20.1557L154.286 28.6121H149.84L145.93 23.0969L142.018 28.6121H137.606L143.656 20.1892L137.673 11.9329H142.153ZM127.443 19.9388C132.234 19.9388 136.117 23.8221 136.117 28.6121H118.77C118.77 23.8221 122.653 19.9388 127.443 19.9388ZM109.875 15.0751C107.201 15.0751 105.295 17.2146 105.295 20.256C105.295 23.2974 107.201 25.4703 109.875 25.4703C112.549 25.4703 114.521 23.2974 114.521 20.256C114.521 17.2474 112.549 15.0751 109.875 15.0751ZM35.4162 15.1753C32.709 15.1753 30.7702 17.3147 30.7702 20.256C30.7702 23.2306 32.709 25.37 35.4162 25.37C38.0905 25.37 40.0957 23.2306 40.0957 20.256C40.0957 17.3147 38.0905 15.1753 35.4162 15.1753ZM72.4798 14.7742C69.772 14.7742 68.2683 16.6127 67.9006 18.5176H76.7916C76.6913 17.0139 75.3542 14.7742 72.4798 14.7742ZM127.443 0.234436C132.234 0.234436 136.117 4.11772 136.117 8.90833C136.117 13.6989 132.234 17.5822 127.443 17.5822C122.653 17.5822 118.77 13.6989 118.77 8.90833C118.77 4.11772 122.653 0.234436 127.443 0.234436Z" fill="#5D5D5D"/>
</g>
<defs>
<clipPath id="clip0_2_8010">
<rect width="154.286" height="36" fill="white"/>
</clipPath>
</defs>
</svg>
