<svg width="48" height="48" viewBox="0 0 48 48" fill="none" xmlns="http://www.w3.org/2000/svg">
<path d="M28 22H36C36.5304 22 37.0391 21.7893 37.4142 21.4142C37.7893 21.0391 38 20.5304 38 20V14C38 13.4696 37.7893 12.9609 37.4142 12.5858C37.0391 12.2107 36.5304 12 36 12H30C29.4696 12 28.9609 12.2107 28.5858 12.5858C28.2107 12.9609 28 13.4696 28 14V26C28 31.3333 30.6667 34.6667 36 36M10 22H18C18.5304 22 19.0391 21.7893 19.4142 21.4142C19.7893 21.0391 20 20.5304 20 20V14C20 13.4696 19.7893 12.9609 19.4142 12.5858C19.0391 12.2107 18.5304 12 18 12H12C11.4696 12 10.9609 12.2107 10.5858 12.5858C10.2107 12.9609 10 13.4696 10 14V26C10 31.3333 12.6667 34.6667 18 36" stroke="white" stroke-width="3" stroke-linecap="round" stroke-linejoin="round"/>
</svg>
