<svg width="111" height="28" viewBox="0 0 111 28" fill="none" xmlns="http://www.w3.org/2000/svg">
<path d="M35.2979 22.0483L36.676 18.8381C38.1653 19.9527 40.1436 20.5323 42.0996 20.5323C43.5445 20.5323 44.4558 19.975 44.4558 19.1279C44.4336 16.7648 35.8091 18.6151 35.7424 12.6852C35.7202 9.67565 38.3876 7.35718 42.1663 7.35718C44.4114 7.35718 46.6564 7.9145 48.2568 9.1852L46.9676 12.4623C45.5005 11.526 43.6778 10.8572 41.944 10.8572C40.766 10.8572 39.988 11.4145 39.988 12.1279C40.0102 14.4464 48.7014 13.1757 48.7903 18.8381C48.7903 21.9145 46.1896 24.0769 42.4553 24.0769C39.7212 24.0769 37.2095 23.4304 35.2979 22.0483Z" fill="#5D5D5D"/>
<path d="M88.1781 17.6788C87.489 18.8827 86.1998 19.7075 84.7105 19.7075C82.5099 19.7075 80.7317 17.9241 80.7317 15.7171C80.7317 13.51 82.5099 11.7266 84.7105 11.7266C86.1998 11.7266 87.489 12.5514 88.1781 13.7553L91.9791 11.6374C90.5565 9.09603 87.8225 7.35718 84.7105 7.35718C80.1093 7.35718 76.375 11.1024 76.375 15.7171C76.375 20.3317 80.1093 24.0769 84.7105 24.0769C87.8447 24.0769 90.5565 22.3604 91.9791 19.7967L88.1781 17.6788Z" fill="#5D5D5D"/>
<path d="M55.458 0.423828H50.7012V23.7646H55.458V0.423828Z" fill="#5D5D5D"/>
<path d="M93.8467 0.423828V23.7646H98.6035V16.7646L104.249 23.7646H110.34L103.16 15.4493L109.806 7.69134H103.983L98.6035 14.134V0.423828H93.8467Z" fill="#5D5D5D"/>
<path d="M69.5958 17.7234C68.9067 18.8604 67.4841 19.7075 65.8837 19.7075C63.6831 19.7075 61.9049 17.9241 61.9049 15.7171C61.9049 13.51 63.6831 11.7266 65.8837 11.7266C67.4841 11.7266 68.9067 12.6183 69.5958 13.7776V17.7234ZM69.5958 7.69157V9.58648C68.8178 8.27119 66.884 7.35718 64.8612 7.35718C60.6823 7.35718 57.3926 11.0578 57.3926 15.6948C57.3926 20.3317 60.6823 24.0769 64.8612 24.0769C66.884 24.0769 68.8178 23.1629 69.5958 21.8476V23.7425H74.3526V7.69157H69.5958Z" fill="#5D5D5D"/>
<path d="M5.89067 17.7003C5.89067 19.3277 4.57922 20.643 2.95657 20.643C1.33392 20.643 0.0224609 19.3277 0.0224609 17.7003C0.0224609 16.0729 1.33392 14.7576 2.95657 14.7576H5.89067V17.7003Z" fill="#5D5D5D"/>
<path d="M7.3584 17.7001C7.3584 16.0727 8.66985 14.7574 10.2925 14.7574C11.9152 14.7574 13.2266 16.0727 13.2266 17.7001V25.0568C13.2266 26.6842 11.9152 27.9995 10.2925 27.9995C8.66985 27.9995 7.3584 26.6842 7.3584 25.0568V17.7001Z" fill="#5D5D5D"/>
<path d="M10.2915 5.88535C8.66888 5.88535 7.35742 4.57007 7.35742 2.94268C7.35742 1.31529 8.66888 0 10.2915 0C11.9142 0 13.2256 1.31529 13.2256 2.94268V5.88535H10.2915Z" fill="#5D5D5D"/>
<path d="M10.2916 7.37939C11.9142 7.37939 13.2257 8.69468 13.2257 10.3221C13.2257 11.9495 11.9142 13.2647 10.2916 13.2647H2.93411C1.31146 13.2647 0 11.9495 0 10.3221C0 8.69468 1.31146 7.37939 2.93411 7.37939H10.2916Z" fill="#5D5D5D"/>
<path d="M22.0498 10.3221C22.0498 8.69468 23.3613 7.37939 24.9839 7.37939C26.6066 7.37939 27.918 8.69468 27.918 10.3221C27.918 11.9495 26.6066 13.2647 24.9839 13.2647H22.0498V10.3221Z" fill="#5D5D5D"/>
<path d="M20.5831 10.3217C20.5831 11.949 19.2716 13.2643 17.649 13.2643C16.0263 13.2643 14.7148 11.949 14.7148 10.3217V2.94268C14.7148 1.31529 16.0263 0 17.649 0C19.2716 0 20.5831 1.31529 20.5831 2.94268V10.3217Z" fill="#5D5D5D"/>
<path d="M17.649 22.1146C19.2716 22.1146 20.5831 23.4299 20.5831 25.0573C20.5831 26.6847 19.2716 28 17.649 28C16.0263 28 14.7148 26.6847 14.7148 25.0573V22.1146H17.649Z" fill="#5D5D5D"/>
<path d="M17.649 20.643C16.0263 20.643 14.7148 19.3277 14.7148 17.7003C14.7148 16.0729 16.0263 14.7576 17.649 14.7576H25.0064C26.6291 14.7576 27.9405 16.0729 27.9405 17.7003C27.9405 19.3277 26.6291 20.643 25.0064 20.643H17.649Z" fill="#5D5D5D"/>
</svg>
