<svg width="123" height="40" viewBox="0 0 123 40" fill="none" xmlns="http://www.w3.org/2000/svg">
<g clip-path="url(#clip0_2_7982)">
<path d="M35.5937 23.1616L37.7961 24.4255L37.7305 24.5485C36.8122 26.284 34.9484 27.3664 32.8773 27.3664C29.632 27.3664 27.1836 24.9186 27.1836 21.6816C27.1836 18.444 29.632 15.998 32.8773 15.998C34.9639 15.998 36.8117 17.0649 37.694 18.7933L37.752 18.9169L35.543 20.201L35.4779 20.056C35.0302 19.0977 34.0511 18.5169 32.8558 18.5169C31.0809 18.5169 29.7484 19.8822 29.7484 21.681C29.7484 23.4816 31.0809 24.8392 32.8558 24.8392C34.0218 24.8392 35.0218 24.2661 35.5209 23.3001L35.5937 23.1628V23.1616Z" fill="#5D5D5D"/>
<mask id="mask0_2_7982" style="mask-type:luminance" maskUnits="userSpaceOnUse" x="117" y="16" width="6" height="12">
<path d="M117.184 16.0791H122.985V27.0904H117.184V16.0791Z" fill="white"/>
</mask>
<g mask="url(#mask0_2_7982)">
<path d="M122.985 16.0791V18.8439L122.826 18.8367C121.906 18.771 121.073 19.0254 120.529 19.534C120.008 20.02 119.747 20.7316 119.747 21.6397V27.0904H117.184V16.2755H119.747V17.6093C120.392 16.6242 121.464 16.0797 122.834 16.0797H122.985V16.0791Z" fill="#5D5D5D"/>
</g>
<path d="M52.3109 20.6508C52.6655 19.2066 53.7735 18.3499 55.3031 18.3499C56.7658 18.3499 57.8165 19.2066 58.1282 20.6508H52.3109ZM55.3252 15.9982C52.0285 15.9982 49.6309 18.3863 49.6309 21.6818C49.6309 25.0281 52.0434 27.366 55.4906 27.366C57.5121 27.366 59.1861 26.5242 60.2147 25.0066L60.3013 24.8758L58.1783 23.6346L58.1061 23.7433C57.5628 24.5343 56.6213 24.9917 55.5132 24.9917C53.8906 24.9917 52.7097 24.1714 52.3329 22.7923H60.6416L60.6559 22.6693C60.6995 22.3576 60.7431 22.0233 60.7431 21.7033C60.7431 18.452 58.4106 15.9982 55.324 15.9982H55.3252Z" fill="#5D5D5D"/>
<mask id="mask1_2_7982" style="mask-type:luminance" maskUnits="userSpaceOnUse" x="0" y="0" width="123" height="40">
<path d="M0 39.9104H122.985V0H0V39.9104Z" fill="white"/>
</mask>
<g mask="url(#mask1_2_7982)">
<path d="M93.8282 27.0893H96.393V16.2732H93.8282V27.0893ZM66.4485 16.2744H69.0563V18.7496H66.4485V23.657C66.4485 24.0702 66.5351 24.3382 66.7088 24.5048C67.0491 24.8332 67.7661 24.8111 68.9046 24.7603L69.0557 24.7532V27.0756L68.9255 27.0899C68.4037 27.1556 67.9255 27.1842 67.4915 27.1842C66.2819 27.1842 65.4199 26.9305 64.8402 26.4153C64.2025 25.8493 63.8915 24.9496 63.8915 23.657V18.749H61.9572V16.2744H63.8915V14.0308L66.4485 13.2756V16.2744ZM99.0658 27.0899H101.623V11.4248H99.0658V27.0899ZM80.6031 14.6696H76.4664V27.0893H73.7578V14.6696H69.5996V12.0636H80.6031V14.6696ZM22.6145 27.0893H25.1787V16.2732H22.6151L22.6145 27.0893ZM25.4909 13.3854C25.4909 14.2481 24.7584 14.9824 23.8969 14.9824C23.0348 14.9824 22.3028 14.2481 22.3028 13.3854C22.3028 12.5066 23.0193 11.7884 23.8969 11.7884C24.3197 11.7898 24.7248 11.9586 25.0235 12.2579C25.3222 12.5572 25.4903 12.9626 25.4909 13.3854ZM96.704 13.3854C96.704 14.2481 95.9733 14.9824 95.1112 14.9824C94.2485 14.9824 93.5172 14.2481 93.5172 13.3854C93.518 12.9626 93.6861 12.5573 93.9847 12.2581C94.2834 11.9588 94.6884 11.79 95.1112 11.7884C95.5338 11.7901 95.9386 11.9591 96.2371 12.2583C96.5355 12.5576 96.7034 12.9628 96.704 13.3854ZM109.403 24.8612C107.621 24.8612 106.274 23.4964 106.274 21.6815C106.274 19.8666 107.621 18.4953 109.403 18.4953C111.192 18.4953 112.54 19.8672 112.54 21.6815C112.54 23.4964 111.192 24.8612 109.403 24.8612ZM109.403 15.9979C106.209 15.9979 103.709 18.4953 103.709 21.6815C103.709 24.8696 106.209 27.3651 109.403 27.3651C112.598 27.3651 115.096 24.8696 115.096 21.6815C115.096 18.4953 112.598 15.9979 109.403 15.9979M85.3894 24.9048C83.5494 24.9048 82.2163 23.5472 82.2163 21.6809C82.2163 19.8153 83.5494 18.4582 85.3894 18.4582C87.2294 18.4582 88.5697 19.8153 88.5697 21.6815C88.5697 23.5472 87.2294 24.9048 85.3894 24.9048ZM88.5697 16.2738V17.5006C87.6999 16.5132 86.4897 15.9979 85.0342 15.9979C82.021 15.9979 79.6593 18.4947 79.6593 21.6815C79.6593 24.8099 82.0712 27.3657 85.0342 27.3657C86.4969 27.3657 87.7076 26.8439 88.5697 25.8487V27.0893H91.1273V16.275H88.5697V16.2738ZM9.88672 12.0636H20.8897V14.6696H16.7536V27.0893H14.0443V14.6696H9.88672V12.0636ZM44.3387 21.5735L49.2581 27.0887H46.1572L42.0634 22.466V27.0893H39.4999V12.0624H42.0634V20.6869L45.9249 16.2732H49.0903L44.3387 21.5735Z" fill="#5D5D5D"/>
</g>
<mask id="mask2_2_7982" style="mask-type:luminance" maskUnits="userSpaceOnUse" x="0" y="0" width="123" height="40">
<path d="M0 39.9104H122.985V0H0V39.9104Z" fill="white"/>
</mask>
<g mask="url(#mask2_2_7982)">
<path d="M10.523 39.9095C9.926 39.9095 9.40063 39.5119 9.23705 38.9364L0.0525679 6.84328C0.00355801 6.67356 -0.0113873 6.49582 0.00859304 6.3203C0.0285733 6.14478 0.0830843 5.97495 0.168986 5.82059C0.342717 5.50656 0.62809 5.27969 0.971971 5.18059L5.91525 3.76149C6.21822 3.67542 6.54186 3.69915 6.82903 3.82848C7.11621 3.95781 7.34846 4.18444 7.48481 4.46835C7.7785 5.07836 8.27886 5.56457 8.89704 5.84065C9.51522 6.11673 10.2112 6.16483 10.8615 5.97641C11.5123 5.78972 12.0763 5.37915 12.4539 4.81717C12.8315 4.25518 12.9985 3.57788 12.9254 2.90477C12.8902 2.59133 12.9671 2.27556 13.1423 2.01332C13.3176 1.75109 13.58 1.55932 13.883 1.47193L18.8263 0.051038C18.9957 0.00239842 19.173 -0.0123289 19.3481 0.00770062C19.5232 0.0277301 19.6926 0.0821224 19.8466 0.167759C20.0006 0.253395 20.1362 0.368592 20.2457 0.506743C20.3551 0.644894 20.4361 0.803283 20.4842 0.972829L22.5911 8.33701C22.6134 8.41478 22.6202 8.49619 22.6111 8.5766C22.602 8.657 22.5771 8.73483 22.5379 8.80562C22.4987 8.87641 22.446 8.9388 22.3827 8.9892C22.3194 9.03961 22.2468 9.07705 22.169 9.0994C22.0912 9.12174 22.0098 9.12855 21.9294 9.11943C21.849 9.11031 21.7712 9.08544 21.7004 9.04625C21.6296 9.00705 21.5672 8.9543 21.5168 8.891C21.4664 8.82769 21.4289 8.75508 21.4066 8.67731L19.2991 1.31313C19.2911 1.28551 19.2725 1.26218 19.2473 1.24821C19.2222 1.23424 19.1925 1.23075 19.1648 1.2385L14.2215 2.6594C14.1738 2.67253 14.1439 2.72029 14.1499 2.77402C14.2543 3.7358 14.0157 4.70356 13.4761 5.50653C12.9365 6.30949 12.1306 6.89605 11.2006 7.16268C10.2715 7.4311 9.27742 7.36194 8.39446 6.96745C7.51149 6.57295 6.79669 5.8786 6.37675 5.00746C6.36655 4.98463 6.34862 4.96612 6.32613 4.9552C6.30363 4.94428 6.27801 4.94165 6.25376 4.94775L1.31167 6.36865C1.26212 6.38358 1.22331 6.45402 1.23705 6.50298L10.4203 38.5967C10.4242 38.6104 10.4308 38.6232 10.4397 38.6344C10.4486 38.6456 10.4596 38.6549 10.472 38.6618C10.4845 38.6688 10.4982 38.6732 10.5124 38.6748C10.5266 38.6764 10.5409 38.6753 10.5547 38.6713L15.4967 37.2504C15.5203 37.2431 15.5404 37.2277 15.5538 37.2069C15.5671 37.1862 15.5727 37.1615 15.5696 37.137C15.4641 36.1742 15.7025 35.2052 16.2427 34.4012C16.7829 33.5973 17.59 33.0103 18.5212 32.7442C19.4503 32.4755 20.4446 32.5447 21.3275 32.9396C22.2105 33.3345 22.9249 34.0295 23.3439 34.9012C23.3678 34.9489 23.4161 34.9764 23.4669 34.9609L28.4096 33.54C28.4573 33.5257 28.4973 33.4552 28.483 33.4057L27.206 28.9418C27.1799 28.863 27.1699 28.7798 27.1768 28.6971C27.1836 28.6143 27.2071 28.5339 27.2458 28.4605C27.2845 28.387 27.3377 28.3222 27.4021 28.2699C27.4665 28.2175 27.5408 28.1787 27.6205 28.1557C27.7003 28.1328 27.7838 28.1262 27.8662 28.1364C27.9486 28.1465 28.0281 28.1732 28.0999 28.2149C28.1716 28.2565 28.2343 28.3122 28.284 28.3786C28.3338 28.4451 28.3696 28.5209 28.3893 28.6015L29.6681 33.066C29.7172 33.2354 29.7321 33.4129 29.712 33.5882C29.692 33.7634 29.6372 33.9329 29.5511 34.0869C29.4662 34.2412 29.3516 34.3773 29.2139 34.4871C29.0762 34.5969 28.9181 34.6784 28.7487 34.7269L23.806 36.1478C23.5026 36.2342 23.1784 36.2104 22.8909 36.0804C22.6034 35.9505 22.3713 35.7228 22.2359 35.4379C21.9422 34.8284 21.4422 34.3426 20.8245 34.0667C20.2069 33.7908 19.5114 33.7425 18.8615 33.9304C18.2098 34.1163 17.6448 34.5266 17.2664 35.0888C16.8879 35.651 16.7204 36.3289 16.7935 37.0027C16.8291 37.3162 16.7527 37.6323 16.5778 37.8949C16.4028 38.1576 16.1407 38.3499 15.8376 38.4379L10.8961 39.8564C10.775 39.8911 10.6496 39.9088 10.5236 39.9089" fill="#5D5D5D"/>
</g>
</g>
<defs>
<clipPath id="clip0_2_7982">
<rect width="122.985" height="40" fill="white"/>
</clipPath>
</defs>
</svg>
